<svg xmlns="http://www.w3.org/2000/svg" xmlns:xlink="http://www.w3.org/1999/xlink" version="1.1" x="0px" y="0px" viewBox="0 0 100 125" style="enable-background:new 0 0 100 100;" xml:space="preserve"><path d="M37.29,81.8l-2.95-0.79l2.29-8.56c0.61-2.27,0.39-4.49-0.66-6.6L24.4,42.65c-0.94-1.88-2.74-3.12-4.72-3.42l5.81-17.37  c0.53-1.59,0.41-3.3-0.34-4.81c-0.75-1.51-2.05-2.64-3.63-3.17c-3.29-1.1-6.87,0.68-7.98,3.96L2.12,50.83  c-1.04,3.01-0.57,6.07,1.32,8.63l5.67,7.7c1.18,1.59,1.53,3.44,1.02,5.35l-0.51,1.89L6.67,73.6c-1.86-0.5-3.78,0.61-4.29,2.47  l-1.85,6.9c-0.24,0.9-0.12,1.84,0.35,2.65c0.47,0.81,1.22,1.39,2.12,1.63l30.63,8.21c0.3,0.08,0.6,0.12,0.89,0.12  c1.54,0,2.96-1.03,3.38-2.59c0,0,0,0,0,0l1.85-6.9C40.26,84.23,39.16,82.3,37.29,81.8z M11.6,65.31l-5.67-7.7  c-1.28-1.74-1.59-3.74-0.88-5.78l11.42-32.99c0.56-1.68,2.39-2.59,4.07-2.02c0.81,0.27,1.46,0.84,1.85,1.61  c0.38,0.77,0.45,1.64,0.18,2.45l-6.29,18.79c-0.11,0.05-0.22,0.1-0.32,0.15c-1.5,0.75-2.63,2.04-3.16,3.64  c-0.54,1.6-0.42,3.31,0.33,4.81l7.82,15.68c0.27,0.54,0.82,0.86,1.38,0.86c0.23,0,0.47-0.05,0.69-0.16  c0.76-0.38,1.07-1.31,0.69-2.07l-7.82-15.68c-0.38-0.76-0.44-1.63-0.17-2.45c0.27-0.82,0.84-1.48,1.63-1.87  c0.14-0.07,0.28-0.13,0.44-0.18c0.03-0.01,0.05-0.02,0.08-0.03c0.01,0,0.03,0,0.04-0.01c1.48-0.4,3.04,0.3,3.73,1.67l11.56,23.2  c0.71,1.44,0.86,2.88,0.44,4.43l-2.29,8.56l-18.74-5.02l0.51-1.89C13.88,70.45,13.36,67.69,11.6,65.31z M36.77,85.28l-1.85,6.9  c-0.06,0.21-0.29,0.35-0.5,0.29l-30.62-8.2c-0.14-0.04-0.21-0.14-0.24-0.19c-0.03-0.05-0.08-0.17-0.04-0.31l1.85-6.9  c0.05-0.18,0.22-0.3,0.4-0.3c0.03,0,0.07,0,0.1,0.01l26.15,7.01c0.01,0,0.02,0.01,0.03,0.01c0.01,0,0.02,0,0.02,0l4.42,1.18  C36.7,84.84,36.83,85.07,36.77,85.28z M99.46,82.98l-1.85-6.91c-0.24-0.9-0.82-1.65-1.63-2.12c-0.81-0.47-1.75-0.59-2.65-0.35  l-2.95,0.79l-0.5-1.88c-0.51-1.91-0.16-3.76,1.01-5.35l5.68-7.69c1.89-2.56,2.36-5.62,1.31-8.63L86.46,17.86  c-0.53-1.59-1.66-2.88-3.17-3.64c-1.51-0.75-3.22-0.87-4.8-0.34c-1.59,0.53-2.89,1.66-3.64,3.17c-0.75,1.51-0.87,3.22-0.34,4.81  l5.81,17.37c-1.99,0.3-3.78,1.54-4.72,3.42l-11.56,23.2c-1.05,2.1-1.28,4.33-0.66,6.6l2.29,8.56l-2.95,0.79  c-1.86,0.5-2.97,2.43-2.47,4.28l1.85,6.9c0.24,0.9,0.82,1.65,1.63,2.12c0.54,0.31,1.14,0.47,1.75,0.47c0.3,0,0.6-0.04,0.9-0.12  l30.62-8.21C98.85,86.76,99.96,84.84,99.46,82.98z M66.36,71.65c-0.42-1.55-0.27-2.99,0.44-4.42l11.57-23.2  c0.68-1.37,2.25-2.07,3.73-1.66c0.01,0,0.02,0,0.03,0.01c0.03,0.01,0.06,0.02,0.09,0.03c0.16,0.05,0.31,0.11,0.46,0.18  c0.76,0.38,1.33,1.04,1.61,1.86c0.27,0.82,0.21,1.69-0.17,2.45L76.3,62.57c-0.38,0.76-0.07,1.69,0.69,2.07  c0.22,0.11,0.46,0.16,0.69,0.16c0.57,0,1.11-0.31,1.38-0.86l7.81-15.67c0.75-1.5,0.87-3.21,0.33-4.81c-0.53-1.6-1.66-2.89-3.16-3.64  c-0.11-0.05-0.21-0.1-0.32-0.15l-6.29-18.8c-0.27-0.81-0.21-1.67,0.18-2.44c0.38-0.77,1.04-1.35,1.86-1.62  c0.81-0.27,1.67-0.21,2.44,0.18c0.77,0.38,1.35,1.04,1.62,1.86l11.42,32.98c0.71,2.05,0.4,4.04-0.88,5.78l-5.68,7.7  c-1.75,2.37-2.27,5.14-1.51,7.99l0.5,1.89l-18.74,5.02L66.36,71.65z M96.19,84.27l-30.61,8.2c-0.14,0.04-0.26-0.01-0.31-0.04  c-0.05-0.03-0.15-0.1-0.19-0.24c0,0,0,0,0-0.01l-1.85-6.91c-0.06-0.21,0.08-0.44,0.29-0.49l4.42-1.18c0.01,0,0.02,0,0.03-0.01  c0.01,0,0.02-0.01,0.03-0.01l26.14-7.01c0.04-0.01,0.07-0.01,0.1-0.01c0.08,0,0.15,0.03,0.2,0.06c0.06,0.03,0.16,0.11,0.19,0.25  l1.85,6.9C96.53,83.99,96.4,84.22,96.19,84.27z M72.46,36.81c0-3.12-1.21-6.05-3.4-8.25c-4.55-4.55-11.95-4.55-16.5,0L50,31.12  l-2.56-2.56c-4.55-4.55-11.95-4.55-16.5,0c-2.2,2.2-3.4,5.12-3.4,8.25c0,3.12,1.21,6.05,3.4,8.25l16.88,16.88  c0.6,0.6,1.39,0.89,2.18,0.89c0.79,0,1.58-0.3,2.18-0.9l16.88-16.88C71.25,42.86,72.46,39.93,72.46,36.81z M50,59.75L33.13,42.87  c-3.34-3.34-3.34-8.78,0-12.12c3.34-3.34,8.78-3.34,12.13,0l3.66,3.65c0.6,0.6,1.58,0.6,2.18,0l3.65-3.65  c3.34-3.34,8.78-3.34,12.12,0c1.61,1.61,2.5,3.76,2.5,6.06c0,2.3-0.89,4.45-2.5,6.06L50,59.75z M48.46,10.71V5.96  c0-0.85,0.69-1.55,1.55-1.55c0.85,0,1.55,0.69,1.55,1.55v4.75c0,0.85-0.69,1.55-1.55,1.55C49.15,12.26,48.46,11.56,48.46,10.71z   M58.01,12.44l2.37-4.11c0.43-0.74,1.37-0.99,2.11-0.57c0.74,0.43,0.99,1.37,0.57,2.11l-2.37,4.11c-0.29,0.5-0.81,0.77-1.34,0.77  c-0.26,0-0.53-0.07-0.77-0.21C57.84,14.13,57.59,13.18,58.01,12.44z M64.86,20.84c-0.43-0.74-0.17-1.68,0.57-2.11l4.11-2.37  c0.74-0.43,1.68-0.17,2.11,0.57c0.43,0.74,0.17,1.68-0.57,2.11l-4.11,2.37c-0.24,0.14-0.51,0.21-0.77,0.21  C65.67,21.61,65.15,21.34,64.86,20.84z M36.93,9.88c-0.43-0.74-0.17-1.68,0.57-2.11c0.74-0.43,1.68-0.17,2.11,0.57l2.37,4.11  c0.43,0.74,0.17,1.68-0.57,2.11c-0.24,0.14-0.51,0.21-0.77,0.21c-0.53,0-1.05-0.28-1.34-0.77L36.93,9.88z M28.35,16.92  c0.43-0.74,1.37-0.99,2.11-0.57l4.11,2.37c0.74,0.43,0.99,1.37,0.57,2.11c-0.29,0.5-0.81,0.77-1.34,0.77  c-0.26,0-0.53-0.07-0.77-0.21l-4.11-2.37C28.18,18.61,27.92,17.66,28.35,16.92z"/><text x="0" y="115" fill="#000000" font-size="5px" font-weight="bold" font-family="'Helvetica Neue', Helvetica, Arial-Unicode, Arial, Sans-serif">Created by Wahicon</text><text x="0" y="120" fill="#000000" font-size="5px" font-weight="bold" font-family="'Helvetica Neue', Helvetica, Arial-Unicode, Arial, Sans-serif">from the Noun Project</text></svg>